<?xml version="1.0" encoding="UTF-8"?>
<svg xmlns="http://www.w3.org/2000/svg" xmlns:xlink="http://www.w3.org/1999/xlink" width="25px" height="16px" viewBox="0 0 25 16" version="1.1">
<defs>
<clipPath id="clip1">
  <path d="M 12.5 8 L 25 8 L 25 16 Z M 12.5 8 L 12.5 16 L 0 16 Z M 12.5 8 L 0 8 L 0 0 Z M 12.5 8 L 12.5 0 L 25 0 Z M 12.5 8 "/>
</clipPath>
</defs>
<g id="surface1">
<rect x="0" y="0" width="25" height="16" style="fill:rgb(0.392157%,12.941176%,41.176471%);fill-opacity:1;stroke:none;"/>
<path style="fill-rule:nonzero;fill:rgb(0%,0%,0%);fill-opacity:1;stroke-width:6;stroke-linecap:butt;stroke-linejoin:miter;stroke:rgb(100%,100%,100%);stroke-opacity:1;stroke-miterlimit:4;" d="M 0 0 L 60 30 M 60 0 L 0 30 " transform="matrix(0.416667,0,0,0.533333,0,0)"/>
<g clip-path="url(#clip1)" clip-rule="nonzero">
<path style="fill-rule:nonzero;fill:rgb(0%,0%,0%);fill-opacity:1;stroke-width:4;stroke-linecap:butt;stroke-linejoin:miter;stroke:rgb(78.431373%,6.27451%,18.039216%);stroke-opacity:1;stroke-miterlimit:4;" d="M 0 0 L 60 30 M 60 0 L 0 30 " transform="matrix(0.416667,0,0,0.533333,0,0)"/>
</g>
<path style="fill-rule:nonzero;fill:rgb(0%,0%,0%);fill-opacity:1;stroke-width:10;stroke-linecap:butt;stroke-linejoin:miter;stroke:rgb(100%,100%,100%);stroke-opacity:1;stroke-miterlimit:4;" d="M 30 0 L 30 30 M 0 15 L 60 15 " transform="matrix(0.416667,0,0,0.533333,0,0)"/>
<path style="fill-rule:nonzero;fill:rgb(0%,0%,0%);fill-opacity:1;stroke-width:6;stroke-linecap:butt;stroke-linejoin:miter;stroke:rgb(78.431373%,6.27451%,18.039216%);stroke-opacity:1;stroke-miterlimit:4;" d="M 30 0 L 30 30 M 0 15 L 60 15 " transform="matrix(0.416667,0,0,0.533333,0,0)"/>
</g>
</svg>
