<?xml version="1.0" standalone="no"?>
<!DOCTYPE svg PUBLIC "-//W3C//DTD SVG 1.0//EN" "http://www.w3.org/TR/2001/REC-SVG-20010904/DTD/svg10.dtd">
<svg xmlns="http://www.w3.org/2000/svg" xmlns:xlink="http://www.w3.org/1999/xlink" id="body_1" width="32" height="32">

<g transform="matrix(0.26041883 0 0 0.26041883 -0 0.74102104)">
	<g>
        <path d="M64.395 1.969L80.107994 38.759003L119.961 42.334003C 121.72 42.486004 123.020996 44.035004 122.868 45.793003C 122.795 46.65 122.389 47.397003 121.788994 47.922005L121.788994 47.922005L121.79099 47.923004L91.641 74.25L100.558 113.270996C 100.952995 114.993996 99.875 116.71 98.152 117.104996C 97.269 117.308 96.389 117.12299 95.686 116.663994L95.686 116.663994L61.441 96.191L27.087 116.73C 25.571 117.636 23.607 117.142006 22.7 115.62601C 22.259 114.89001 22.150002 114.046005 22.327002 113.271L22.327002 113.271L22.324001 113.271L31.242 74.25L1.092 47.924C -0.23699999 46.761 -0.37100005 44.741 0.791 43.412C 1.382 42.736 2.196 42.37 3.026 42.324997L3.026 42.324997L42.774002 38.758995L58.495003 1.9489937C 59.187004 0.3219937 61.067 -0.43500638 62.694004 0.25699365C 63.494 0.597 64.084 1.225 64.395 1.969zM74.967 43.023L61.441 11.351L47.914 43.023L47.91 43.022C 47.461998 44.072998 46.463 44.848 45.245 44.954L45.245 44.954L10.938999 48.031998L36.758 70.576996C 37.707 71.31699 38.196 72.564995 37.91 73.81699L37.91 73.81699L30.236 107.39499L59.742 89.75399C 60.728 89.13699 62.016 89.08199 63.084 89.72099L63.084 89.72099L92.647 107.39499L84.97401 73.816986L84.977005 73.81499C 84.725006 72.705986 85.073006 71.49699 85.989006 70.695984L85.989006 70.695984L111.94401 48.031982L77.815 44.97C 76.607 44.932 75.472 44.208 74.967 43.023z" stroke="none" fill="#000000" fill-rule="nonzero" />
	</g>
</g>
</svg>